# xmcd
#
# Track frame offsets: 
#        150
#        20804
#        36744
#        58074
#        78120
#        92949
#        116438
#        135355
#        159152
#        172547
#        189613
#        213719
#
# Disc length: 3146 seconds
#
# Revision: 1
# Processed by: cddbd v1.5.2PL0 Copyright (c) Steve Scherf et al.
# Submitted via: ExactAudioCopyFreeDBPlugin 1.0
#
DISCID=9c0c480c
DTITLE=Martyna Jakubowicz - Kołysz mnie
DYEAR=1992
DGENRE=Blues
TTITLE0=W domach z betonu
TTITLE1=Rosa taka sama od lat
TTITLE2=Ludzie błądzą
TTITLE3=Gdyby nie nasz fart
TTITLE4=Wróżba nie służba
TTITLE5=Wschodnia wioska
TTITLE6=Wiedza jest grzechem
TTITLE7=Baby w Meksyku
TTITLE8=Kretyni i osły
TTITLE9=Wokół strażniczych wież
TTITLE10=Chodź i usiądź obok mnie
TTITLE11=Kołysanka dla Misiaków
EXTD=http://nav.to/wojtus                                       (colle
EXTD=ction)
EXTT0=
EXTT1=
EXTT2=
EXTT3=
EXTT4=
EXTT5=
EXTT6=
EXTT7=
EXTT8=
EXTT9=
EXTT10=
EXTT11=
PLAYORDER=
